<svg width="45" height="37" viewBox="0 0 45 37" fill="none" xmlns="http://www.w3.org/2000/svg">
<g clip-path="url(#clip0_11_71)">
<path d="M16.875 30.8333C17.3723 30.8333 17.8492 30.9958 18.2008 31.2849C18.5525 31.574 18.75 31.9661 18.75 32.375C18.75 32.7839 18.5525 33.176 18.2008 33.4651C17.8492 33.7542 17.3723 33.9167 16.875 33.9167C16.3777 33.9167 15.9008 33.7542 15.5492 33.4651C15.1976 33.176 15 32.7839 15 32.375C15 31.9661 15.1976 31.574 15.5492 31.2849C15.9008 30.9958 16.3777 30.8333 16.875 30.8333ZM30 30.8333C30.4973 30.8333 30.9742 30.9958 31.3258 31.2849C31.6775 31.574 31.875 31.9661 31.875 32.375C31.875 32.7839 31.6775 33.176 31.3258 33.4651C30.9742 33.7542 30.4973 33.9167 30 33.9167C29.5027 33.9167 29.0258 33.7542 28.6742 33.4651C28.3226 33.176 28.125 32.7839 28.125 32.375C28.125 31.9661 28.3226 31.574 28.6742 31.2849C29.0258 30.9958 29.5027 30.8333 30 30.8333ZM4.12501 4.47084C4.39893 4.17048 4.79673 3.96263 5.24377 3.88627C5.69082 3.80992 6.15639 3.87032 6.55313 4.05613L6.75001 4.16404L9.95251 6.13738C10.4975 6.47361 10.9208 6.92557 11.1769 7.44471L11.2894 7.70834H35.3756C35.884 7.70823 36.387 7.7931 36.8542 7.95779C37.3214 8.12248 37.743 8.36355 38.0934 8.66635C38.4438 8.96915 38.7156 9.32736 38.8924 9.71922C39.0692 10.1111 39.1473 10.5284 39.1219 10.9458L39.0975 11.174L38.2406 16.8088C37.9835 18.5045 37.0483 20.0819 35.5821 21.293C34.1159 22.5042 32.2018 23.2804 30.1406 23.4996L29.7169 23.5351L16.005 24.4755L16.4925 26.2083H32.8125C33.2904 26.2088 33.7501 26.3592 34.0976 26.629C34.4451 26.8987 34.6542 27.2674 34.6822 27.6597C34.7102 28.0519 34.555 28.4382 34.2483 28.7395C33.9415 29.0408 33.5064 29.2345 33.0319 29.2809L32.8125 29.2917H16.4925C15.6968 29.2918 14.9216 29.0838 14.2792 28.6977C13.6367 28.3116 13.1603 27.7675 12.9188 27.1441L12.8381 26.9021L7.70063 8.6025L4.50001 6.62917C4.10218 6.38384 3.83918 6.01863 3.76885 5.61386C3.69853 5.20909 3.82664 4.79794 4.12501 4.47084Z" fill="#C0CEB6"/>
</g>
<defs>
<clipPath id="clip0_11_71">
<rect width="45" height="37" fill="white"/>
</clipPath>
</defs>
</svg>
