<svg width="39" height="39" viewBox="0 0 39 39" fill="none" xmlns="http://www.w3.org/2000/svg">
<g clip-path="url(#clip0_11_63)">
<path fill-rule="evenodd" clip-rule="evenodd" d="M9.75 13C9.75027 11.2422 10.2257 9.51724 11.126 8.00755C12.0264 6.49786 13.3181 5.25965 14.8645 4.42394C16.4108 3.58822 18.1544 3.1861 19.9106 3.26013C21.6668 3.33415 23.3703 3.88157 24.8409 4.84445C26.3115 5.80733 27.4944 7.14985 28.2645 8.72994C29.0346 10.31 29.3632 12.0689 29.2155 13.8205C29.0679 15.572 28.4495 17.2511 27.4257 18.68C26.402 20.1088 25.011 21.2344 23.4 21.9375C23.3055 21.9787 23.2265 22.0486 23.1741 22.1374L23.335 24.375H29.25C30.5429 24.375 31.7829 24.8886 32.6971 25.8029C33.6114 26.7171 34.125 27.9571 34.125 29.25V32.5C34.125 33.362 33.7826 34.1886 33.1731 34.7981C32.5636 35.4076 31.737 35.75 30.875 35.75H8.125C7.26305 35.75 6.4364 35.4076 5.8269 34.7981C5.21741 34.1886 4.875 33.362 4.875 32.5V29.25C4.875 27.9571 5.38861 26.7171 6.30285 25.8029C7.21709 24.8886 8.45707 24.375 9.75 24.375H15.665L15.8259 22.139C15.7734 22.0494 15.6937 21.9788 15.5984 21.9375C13.8598 21.1781 12.3805 19.9281 11.3417 18.3407C10.303 16.7532 9.74978 14.8972 9.75 13Z" fill="#C0CEB6"/>
</g>
<defs>
<clipPath id="clip0_11_63">
<rect width="39" height="39" fill="white"/>
</clipPath>
</defs>
</svg>
