<svg width="906" height="43" viewBox="0 0 906 43" fill="none" xmlns="http://www.w3.org/2000/svg">
<rect width="906" height="43" fill="white"/>
<path d="M44.28 28V19.248L43.96 17.632L44.28 16.672H49.4C50.1787 16.672 50.8773 16.7947 51.496 17.04C52.1253 17.2747 52.6213 17.68 52.984 18.256C53.3573 18.8213 53.544 19.6053 53.544 20.608C53.544 21.6107 53.3467 22.4053 52.952 22.992C52.5573 23.568 52.008 23.9787 51.304 24.224C50.6107 24.4693 49.816 24.592 48.92 24.592H47.16V25.424L47.32 27.024L47.16 28H44.28ZM47.16 22.08H48.728C49.2827 22.08 49.7253 21.9787 50.056 21.776C50.3867 21.5627 50.552 21.1733 50.552 20.608C50.552 20.2133 50.472 19.92 50.312 19.728C50.152 19.5253 49.928 19.392 49.64 19.328C49.3627 19.264 49.0373 19.232 48.664 19.232H47L47.16 22.08ZM58.3431 28.16C57.5218 28.16 56.7911 28.0373 56.1511 27.792C55.5111 27.5467 55.0098 27.136 54.6471 26.56C54.2845 25.984 54.1031 25.2053 54.1031 24.224C54.1031 23.52 54.2205 22.9173 54.4551 22.416C54.7005 21.9147 55.0258 21.5093 55.4311 21.2C55.8365 20.88 56.2898 20.6507 56.7911 20.512C57.2925 20.3627 57.8098 20.288 58.3431 20.288C59.2605 20.288 59.9645 20.3787 60.4551 20.56C60.9565 20.7413 61.2871 20.8853 61.4471 20.992L62.2471 23.536L61.9271 24.528H56.9671C57.0418 24.9227 57.2391 25.2533 57.5591 25.52C57.8791 25.7867 58.4071 25.92 59.1431 25.92C59.7191 25.92 60.2151 25.856 60.6311 25.728C61.0471 25.6 61.3725 25.488 61.6071 25.392V27.536C61.2871 27.7067 60.8231 27.856 60.2151 27.984C59.6178 28.1013 58.9938 28.16 58.3431 28.16ZM56.9831 23.504L59.1911 23.184L59.0471 22.496C58.9725 22.4533 58.8605 22.4213 58.7111 22.4C58.5725 22.3787 58.4498 22.368 58.3431 22.368C58.0445 22.368 57.7938 22.432 57.5911 22.56C57.3991 22.688 57.2498 22.8427 57.1431 23.024C57.0471 23.1947 56.9938 23.3547 56.9831 23.504ZM66.705 28.16C65.9263 28.16 65.2383 28.08 64.641 27.92C64.0437 27.76 63.5797 27.5947 63.249 27.424V25.2C63.6863 25.392 64.1343 25.5413 64.593 25.648C65.0623 25.7547 65.4837 25.8293 65.857 25.872C66.2303 25.904 66.497 25.92 66.657 25.92C66.8383 25.92 66.9663 25.8933 67.041 25.84C67.1157 25.776 67.153 25.7013 67.153 25.616C67.153 25.4987 67.057 25.4027 66.865 25.328C66.673 25.2427 66.3103 25.136 65.777 25.008C65.3397 24.9013 64.913 24.768 64.497 24.608C64.0917 24.4373 63.7557 24.2027 63.489 23.904C63.233 23.6053 63.105 23.2053 63.105 22.704C63.105 22.0853 63.249 21.6 63.537 21.248C63.825 20.896 64.2357 20.6507 64.769 20.512C65.3023 20.3627 65.9263 20.288 66.641 20.288C67.0463 20.288 67.425 20.3093 67.777 20.352C68.129 20.3947 68.3797 20.4267 68.529 20.448L70.017 21.408L69.297 23.12L66.497 22.512C66.1557 22.512 65.985 22.624 65.985 22.848C65.985 23.0827 66.2303 23.2587 66.721 23.376C67.105 23.4613 67.4997 23.5573 67.905 23.664C68.3103 23.76 68.6783 23.888 69.009 24.048C69.3503 24.208 69.6223 24.4213 69.825 24.688C70.0383 24.9547 70.145 25.3067 70.145 25.744C70.145 26.5547 69.8517 27.1627 69.265 27.568C68.689 27.9627 67.8357 28.16 66.705 28.16ZM75.985 31.92L76.145 28.512L76.305 27.392L76.145 27.312C76.145 27.312 76.065 27.3813 75.905 27.52C75.745 27.6587 75.5103 27.8027 75.201 27.952C74.8917 28.0907 74.513 28.16 74.065 28.16C73.5637 28.16 73.0783 28.032 72.609 27.776C72.1503 27.52 71.7717 27.1147 71.473 26.56C71.1743 26.0053 71.025 25.28 71.025 24.384C71.025 23.392 71.1743 22.5973 71.473 22C71.7717 21.4027 72.1503 20.9707 72.609 20.704C73.0783 20.4267 73.5637 20.288 74.065 20.288C74.577 20.288 74.9823 20.3467 75.281 20.464C75.5903 20.5813 75.809 20.6987 75.937 20.816C76.0757 20.9333 76.145 20.992 76.145 20.992V20.432H79.041V29.52L79.361 30.992L79.041 31.92H75.985ZM75.265 25.904L76.145 25.68V23.344C76.145 23.0987 76.065 22.9067 75.905 22.768C75.745 22.6187 75.5317 22.544 75.265 22.544C74.8703 22.544 74.5717 22.6773 74.369 22.944C74.1663 23.2107 74.065 23.6427 74.065 24.24C74.065 24.8267 74.1823 25.2533 74.417 25.52C74.6517 25.776 74.9343 25.904 75.265 25.904ZM83.04 28.16C82.4 28.16 81.904 28.0373 81.552 27.792C81.2107 27.5467 80.9707 27.1947 80.832 26.736C80.704 26.2667 80.64 25.7067 80.64 25.056V20.432H83.52V24.64C83.52 25.0347 83.5947 25.344 83.744 25.568C83.904 25.792 84.1387 25.904 84.448 25.904C84.736 25.904 84.9973 25.7813 85.232 25.536C85.4773 25.2907 85.6 24.9333 85.6 24.464V20.432H88.48V25.424L88.816 27.024L88.48 28H85.776V27.216L85.616 27.136C85.4773 27.2747 85.2747 27.424 85.008 27.584C84.752 27.744 84.4533 27.8827 84.112 28C83.7813 28.1067 83.424 28.16 83.04 28.16ZM91.7906 19.984L89.7586 17.936L91.7906 15.904L93.8226 17.936L91.7906 19.984ZM90.3506 28V22.704L90.0146 21.424L90.3346 20.448H93.2306V28H90.3506ZM98.1425 28.16C97.3638 28.16 96.6758 28.08 96.0785 27.92C95.4812 27.76 95.0172 27.5947 94.6865 27.424V25.2C95.1238 25.392 95.5718 25.5413 96.0305 25.648C96.4998 25.7547 96.9212 25.8293 97.2945 25.872C97.6678 25.904 97.9345 25.92 98.0945 25.92C98.2758 25.92 98.4038 25.8933 98.4785 25.84C98.5532 25.776 98.5905 25.7013 98.5905 25.616C98.5905 25.4987 98.4945 25.4027 98.3025 25.328C98.1105 25.2427 97.7478 25.136 97.2145 25.008C96.7772 24.9013 96.3505 24.768 95.9345 24.608C95.5292 24.4373 95.1932 24.2027 94.9265 23.904C94.6705 23.6053 94.5425 23.2053 94.5425 22.704C94.5425 22.0853 94.6865 21.6 94.9745 21.248C95.2625 20.896 95.6732 20.6507 96.2065 20.512C96.7398 20.3627 97.3638 20.288 98.0785 20.288C98.4838 20.288 98.8625 20.3093 99.2145 20.352C99.5665 20.3947 99.8172 20.4267 99.9665 20.448L101.455 21.408L100.735 23.12L97.9345 22.512C97.5932 22.512 97.4225 22.624 97.4225 22.848C97.4225 23.0827 97.6678 23.2587 98.1585 23.376C98.5425 23.4613 98.9372 23.5573 99.3425 23.664C99.7478 23.76 100.116 23.888 100.447 24.048C100.788 24.208 101.06 24.4213 101.263 24.688C101.476 24.9547 101.583 25.3067 101.583 25.744C101.583 26.5547 101.289 27.1627 100.703 27.568C100.127 27.9627 99.2732 28.16 98.1425 28.16ZM105.103 28.16C104.644 28.16 104.217 28.096 103.823 27.968C103.439 27.8293 103.129 27.5947 102.895 27.264C102.66 26.9333 102.543 26.4747 102.543 25.888C102.543 25.3547 102.676 24.912 102.943 24.56C103.209 24.208 103.572 23.9467 104.031 23.776C104.489 23.6053 105.007 23.52 105.583 23.52C106.137 23.52 106.553 23.584 106.831 23.712C107.108 23.8293 107.348 23.952 107.551 24.08L107.663 23.984C107.663 23.664 107.636 23.3973 107.583 23.184C107.529 22.9707 107.407 22.8107 107.215 22.704C107.023 22.5867 106.724 22.528 106.319 22.528C105.924 22.528 105.503 22.5653 105.055 22.64C104.617 22.704 104.212 22.7893 103.839 22.896C103.476 22.992 103.204 23.088 103.023 23.184V20.784C103.353 20.6667 103.823 20.56 104.431 20.464C105.049 20.3573 105.807 20.304 106.703 20.304C107.663 20.304 108.42 20.4267 108.975 20.672C109.54 20.9067 109.945 21.2533 110.191 21.712C110.436 22.16 110.559 22.6987 110.559 23.328V25.456L110.878 27.072L110.559 28.016H107.823V27.232L107.663 27.152C107.577 27.2373 107.428 27.36 107.215 27.52C107.001 27.68 106.719 27.8293 106.367 27.968C106.015 28.096 105.593 28.16 105.103 28.16ZM106.463 26.064C106.751 26.064 106.996 26.0373 107.199 25.984C107.412 25.9307 107.567 25.8827 107.663 25.84V25.536C107.663 25.3973 107.561 25.264 107.359 25.136C107.167 25.008 106.863 24.944 106.447 24.944C105.871 24.944 105.583 25.1467 105.583 25.552C105.583 25.7227 105.647 25.8507 105.775 25.936C105.903 26.0213 106.132 26.064 106.463 26.064ZM112.492 28V22.992L112.156 21.392L112.492 20.432H114.668L114.988 20.8C114.988 20.8 115.062 20.7573 115.212 20.672C115.361 20.576 115.569 20.4853 115.836 20.4C116.113 20.3147 116.433 20.272 116.796 20.272C117.009 20.272 117.222 20.288 117.436 20.32C117.649 20.352 117.814 20.3947 117.932 20.448L118.972 21.328L117.932 23.376L115.82 22.496L115.34 22.656V28H112.492Z" fill="#6E6E6E" fill-opacity="0.29"/>
<g clip-path="url(#clip0_152_2)">
<path d="M19.5 13C20.751 13 21.94 13.27 23.009 13.756C22.4932 14.2135 22.1507 14.8346 22.039 15.515C20.7531 14.9694 19.3258 14.8525 17.9683 15.1816C16.6108 15.5108 15.3955 16.2685 14.5023 17.3424C13.6092 18.4164 13.0858 19.7495 13.0097 21.1442C12.9335 22.539 13.3087 23.9211 14.0796 25.0859C14.8505 26.2508 15.9761 27.1363 17.2897 27.6112C18.6032 28.0862 20.0349 28.1254 21.3725 27.7231C22.71 27.3207 23.8824 26.4981 24.7159 25.3772C25.5494 24.2564 25.9997 22.8968 26 21.5L25.995 21.231C26.531 21.711 27.234 21.996 27.986 22C27.8865 23.7355 27.2549 25.3982 26.177 26.762L29.829 30.414C30.0111 30.6026 30.1119 30.8552 30.1097 31.1174C30.1074 31.3796 30.0022 31.6304 29.8168 31.8158C29.6314 32.0012 29.3806 32.1064 29.1184 32.1087C28.8562 32.111 28.6036 32.0102 28.415 31.828L24.763 28.176C23.6985 29.0149 22.4488 29.5871 21.1181 29.8449C19.7875 30.1026 18.4145 30.0384 17.1137 29.6577C15.813 29.2769 14.6221 28.5906 13.6405 27.656C12.6589 26.7214 11.915 25.5656 11.4709 24.2851C11.0268 23.0045 10.8954 21.6363 11.0876 20.2947C11.2798 18.953 11.7901 17.6767 12.5758 16.5724C13.3615 15.468 14.4 14.5675 15.6045 13.9461C16.809 13.3247 18.1446 13.0003 19.5 13ZM19.5 16C20.427 16 21.301 16.23 22.068 16.635C22.1775 17.1404 22.4158 17.6089 22.7597 17.9951C23.1036 18.3813 23.5416 18.672 24.031 18.839L24.379 18.958C24.9338 20.0226 25.1251 21.2395 24.9237 22.423C24.7222 23.6065 24.139 24.6915 23.2632 25.5126C22.3874 26.3336 21.2669 26.8456 20.0729 26.9703C18.8789 27.0949 17.6769 26.8255 16.6503 26.2031C15.6237 25.5808 14.829 24.6396 14.3873 23.5233C13.9457 22.4069 13.8815 21.1768 14.2044 20.0205C14.5273 18.8642 15.2197 17.8454 16.1759 17.1195C17.1321 16.3935 18.2995 16.0004 19.5 16ZM28 12C28.1871 12 28.3704 12.0525 28.5291 12.1515C28.6879 12.2505 28.8157 12.392 28.898 12.56L28.946 12.677L29.076 13.055C29.2132 13.4572 29.4343 13.8256 29.7246 14.1359C30.0149 14.4463 30.3678 14.6914 30.76 14.855L30.945 14.925L31.323 15.054C31.5102 15.1179 31.6742 15.2358 31.7944 15.3929C31.9145 15.55 31.9854 15.7392 31.9981 15.9366C32.0107 16.134 31.9645 16.3307 31.8653 16.5018C31.7662 16.6729 31.6185 16.8108 31.441 16.898L31.323 16.946L30.945 17.076C30.5428 17.2132 30.1744 17.4343 29.864 17.7246C29.5537 18.0149 29.3086 18.3678 29.145 18.76L29.075 18.945L28.946 19.323C28.882 19.5101 28.764 19.6741 28.6068 19.7942C28.4497 19.9142 28.2604 19.985 28.0631 19.9975C27.8657 20.01 27.669 19.9638 27.498 19.8645C27.3269 19.7653 27.1891 19.6176 27.102 19.44L27.054 19.323L26.924 18.945C26.7868 18.5428 26.5657 18.1744 26.2754 17.8641C25.9851 17.5537 25.6322 17.3086 25.24 17.145L25.055 17.075L24.677 16.946C24.4898 16.8821 24.3257 16.7642 24.2056 16.6071C24.0854 16.45 24.0145 16.2608 24.0019 16.0634C23.9893 15.866 24.0355 15.6693 24.1346 15.4982C24.2338 15.3271 24.3815 15.1892 24.559 15.102L24.677 15.054L25.055 14.924C25.4572 14.7868 25.8256 14.5657 26.1359 14.2754C26.4462 13.9851 26.6913 13.6322 26.855 13.24L26.925 13.055L27.054 12.677C27.1214 12.4796 27.2488 12.3082 27.4184 12.1868C27.588 12.0654 27.7914 12.0001 28 12Z" fill="#C0CEB6"/>
</g>
<defs>
<clipPath id="clip0_152_2">
<rect width="24" height="24" fill="white" transform="translate(9 11)"/>
</clipPath>
</defs>
</svg>
