<svg width="321" height="49" viewBox="0 0 321 49" fill="none" xmlns="http://www.w3.org/2000/svg">
<g clip-path="url(#clip0_72_267)">
<path fill-rule="evenodd" clip-rule="evenodd" d="M98.3333 5.875C100.93 5.875 103.421 6.90662 105.257 8.74291C107.093 10.5792 108.125 13.0698 108.125 15.6667V31.3333C108.125 33.9302 107.093 36.4208 105.257 38.2571C103.421 40.0934 100.93 41.125 98.3333 41.125H82.6667C80.0698 41.125 77.5792 40.0934 75.7429 38.2571C73.9066 36.4208 72.875 33.9302 72.875 31.3333V15.6667C72.875 13.0698 73.9066 10.5792 75.7429 8.74291C77.5792 6.90662 80.0698 5.875 82.6667 5.875H98.3333ZM98.3333 9.79167H82.6667C81.1085 9.79167 79.6142 10.4106 78.5124 11.5124C77.4106 12.6142 76.7917 14.1085 76.7917 15.6667V31.3333C76.7917 32.8915 77.4106 34.3858 78.5124 35.4876C79.6142 36.5894 81.1085 37.2083 82.6667 37.2083H98.3333C99.8915 37.2083 101.386 36.5894 102.488 35.4876C103.589 34.3858 104.208 32.8915 104.208 31.3333V15.6667C104.208 14.1085 103.589 12.6142 102.488 11.5124C101.386 10.4106 99.8915 9.79167 98.3333 9.79167ZM90.5 15.6667C92.5775 15.6667 94.57 16.492 96.039 17.961C97.508 19.43 98.3333 21.4225 98.3333 23.5C98.3333 25.5775 97.508 27.57 96.039 29.039C94.57 30.508 92.5775 31.3333 90.5 31.3333C88.4225 31.3333 86.43 30.508 84.961 29.039C83.492 27.57 82.6667 25.5775 82.6667 23.5C82.6667 21.4225 83.492 19.43 84.961 17.961C86.43 16.492 88.4225 15.6667 90.5 15.6667ZM90.5 19.5833C89.4612 19.5833 88.465 19.996 87.7305 20.7305C86.996 21.465 86.5833 22.4612 86.5833 23.5C86.5833 24.5388 86.996 25.535 87.7305 26.2695C88.465 27.004 89.4612 27.4167 90.5 27.4167C91.5388 27.4167 92.535 27.004 93.2695 26.2695C94.004 25.535 94.4167 24.5388 94.4167 23.5C94.4167 22.4612 94.004 21.465 93.2695 20.7305C92.535 19.996 91.5388 19.5833 90.5 19.5833ZM99.3125 12.7292C99.8319 12.7292 100.33 12.9355 100.697 13.3027C101.065 13.67 101.271 14.1681 101.271 14.6875C101.271 15.2069 101.065 15.705 100.697 16.0723C100.33 16.4395 99.8319 16.6458 99.3125 16.6458C98.7931 16.6458 98.295 16.4395 97.9277 16.0723C97.5605 15.705 97.3542 15.2069 97.3542 14.6875C97.3542 14.1681 97.5605 13.67 97.9277 13.3027C98.295 12.9355 98.7931 12.7292 99.3125 12.7292Z" fill="#C0CEB6" fill-opacity="0.86"/>
</g>
<g clip-path="url(#clip1_72_267)">
<path fill-rule="evenodd" clip-rule="evenodd" d="M301.417 5.91669C302.455 5.91669 303.452 6.32933 304.186 7.06385C304.921 7.79837 305.333 8.79459 305.333 9.83335C305.334 11.1868 305.802 12.4985 306.657 13.5473C307.513 14.5961 308.704 15.3178 310.029 15.5909C311.047 15.7976 311.942 16.4002 312.515 17.2662C313.089 18.1322 313.295 19.1906 313.088 20.2086C312.882 21.2266 312.279 22.1208 311.413 22.6944C310.547 23.2681 309.489 23.4742 308.471 23.2675C307.386 23.0469 306.333 22.6951 305.333 22.2198V33.3334C305.333 35.5311 304.717 37.6847 303.554 39.5496C302.391 41.4145 300.729 42.9159 298.755 43.8833C296.782 44.8507 294.577 45.2452 292.391 45.0221C290.204 44.799 288.124 43.9672 286.387 42.6212C284.65 41.2752 283.325 39.469 282.563 37.4077C281.8 35.3463 281.632 33.1126 282.075 30.9601C282.519 28.8077 283.558 26.8229 285.073 25.2311C286.588 23.6394 288.52 22.5045 290.648 21.9554C291.647 21.7144 292.702 21.876 293.583 22.4056C294.464 22.9351 295.102 23.7899 295.359 24.7856C295.615 25.7813 295.47 26.838 294.954 27.7275C294.439 28.617 293.594 29.268 292.602 29.5401C291.684 29.7837 290.886 30.3523 290.355 31.1404C289.825 31.9284 289.599 32.8821 289.719 33.8244C289.838 34.7667 290.296 35.6334 291.007 36.2635C291.718 36.8936 292.634 37.2441 293.583 37.25C294.622 37.25 295.618 36.8374 296.353 36.1029C297.087 35.3683 297.5 34.3721 297.5 33.3334V9.83335C297.5 8.79459 297.913 7.79837 298.647 7.06385C299.382 6.32933 300.378 5.91669 301.417 5.91669Z" fill="#C0CEB6" fill-opacity="0.86"/>
</g>
<g clip-path="url(#clip2_72_267)">
<path d="M231.437 42.864C240.859 41.4462 248.083 33.3171 248.083 23.5C248.083 12.6841 239.316 3.91669 228.5 3.91669C217.684 3.91669 208.917 12.6841 208.917 23.5C208.917 33.3171 216.141 41.4481 225.562 42.864V29.375H222.625C221.846 29.375 221.099 29.0655 220.548 28.5146C219.997 27.9638 219.687 27.2166 219.687 26.4375C219.687 25.6584 219.997 24.9113 220.548 24.3604C221.099 23.8095 221.846 23.5 222.625 23.5H225.562V19.5834C225.562 17.7655 226.285 16.0221 227.57 14.7367C228.855 13.4513 230.599 12.7292 232.417 12.7292H233.396C234.175 12.7292 234.922 13.0387 235.473 13.5896C236.024 14.1404 236.333 14.8876 236.333 15.6667C236.333 16.4458 236.024 17.1929 235.473 17.7438C234.922 18.2947 234.175 18.6042 233.396 18.6042H232.417C232.157 18.6042 231.908 18.7073 231.724 18.891C231.541 19.0746 231.437 19.3237 231.437 19.5834V23.5H234.375C235.154 23.5 235.901 23.8095 236.452 24.3604C237.003 24.9113 237.312 25.6584 237.312 26.4375C237.312 27.2166 237.003 27.9638 236.452 28.5146C235.901 29.0655 235.154 29.375 234.375 29.375H231.437V42.864Z" fill="#C0CEB6" fill-opacity="0.86"/>
</g>
<g clip-path="url(#clip3_72_267)">
<path fill-rule="evenodd" clip-rule="evenodd" d="M159.5 5.91669C148.684 5.91669 139.917 14.6841 139.917 25.5C139.917 36.3159 148.684 45.0834 159.5 45.0834C170.316 45.0834 179.083 36.3159 179.083 25.5C179.083 14.6841 170.316 5.91669 159.5 5.91669ZM143.833 25.5C143.834 22.2394 144.852 19.0603 146.745 16.4058C148.639 13.7512 151.313 11.7536 154.396 10.6912C157.478 9.62892 160.816 9.55488 163.942 10.4794C167.069 11.404 169.83 13.2811 171.839 15.8491C173.848 18.417 175.006 21.5479 175.151 24.8053C175.296 28.0626 174.422 31.2841 172.649 34.0207C170.876 36.7573 168.294 38.8726 165.262 40.0717C162.23 41.2709 158.899 41.4942 155.734 40.7104L157.14 34.103C158.486 35.2701 160.156 35.7147 161.76 35.6853C163.518 35.652 165.285 35.0586 166.763 34.1284C168.236 33.2021 169.552 31.8568 170.273 30.1981C171.052 28.4099 171.373 26.456 171.208 24.5126C171.044 22.5691 170.398 20.6973 169.329 19.0658C168.26 17.4344 166.802 16.0947 165.086 15.1676C163.37 14.2405 161.45 13.7552 159.499 13.7554C157.549 13.7555 155.629 14.2412 153.913 15.1687C152.198 16.0961 150.74 17.436 149.671 19.0676C148.602 20.6993 147.957 22.5712 147.792 24.5147C147.628 26.4582 147.95 28.412 148.729 30.2C148.827 30.4435 148.972 30.6648 149.157 30.851C149.341 31.0372 149.562 31.1844 149.804 31.2838C150.047 31.3833 150.307 31.433 150.569 31.43C150.831 31.4271 151.09 31.3715 151.331 31.2665C151.571 31.1616 151.788 31.0094 151.968 30.8191C152.149 30.6288 152.289 30.4042 152.381 30.1586C152.473 29.913 152.515 29.6515 152.504 29.3895C152.493 29.1275 152.429 28.8703 152.317 28.6334C151.853 27.5662 151.632 26.4091 151.671 25.246C151.71 24.083 152.008 22.9432 152.542 21.9096C153.077 20.876 153.835 19.9745 154.762 19.2707C155.689 18.5668 156.761 18.0783 157.9 17.8406C159.039 17.6029 160.217 17.622 161.348 17.8965C162.479 18.171 163.534 18.694 164.438 19.4276C165.341 20.1611 166.07 21.0867 166.571 22.1371C167.071 23.1875 167.332 24.3363 167.333 25.5C167.333 27.6444 166.53 29.6458 164.676 30.813C163.72 31.4161 162.641 31.753 161.687 31.7686C160.753 31.7882 160.039 31.5062 159.543 30.9873C159.057 30.4781 158.523 29.495 158.523 27.6542C158.523 26.4792 158.971 25.5 159.508 22.9699C159.566 22.7166 159.573 22.4544 159.529 22.1984C159.484 21.9424 159.39 21.6978 159.25 21.4788C159.11 21.2598 158.928 21.0708 158.715 20.9227C158.501 20.7747 158.26 20.6707 158.006 20.6166C157.752 20.5626 157.49 20.5596 157.235 20.608C156.979 20.6563 156.736 20.7549 156.52 20.8981C156.303 21.0413 156.117 21.2262 155.972 21.442C155.828 21.6578 155.727 21.9003 155.677 22.1552L152.035 39.2769C149.553 37.9325 147.481 35.9425 146.038 33.5174C144.594 31.0924 143.832 28.3223 143.833 25.5Z" fill="#C0CEB6" fill-opacity="0.86"/>
</g>
<g clip-path="url(#clip4_72_267)">
<path d="M23.5 5.91669C34.3159 5.91669 43.0833 14.6841 43.0833 25.5C43.0833 36.3159 34.3159 45.0834 23.5 45.0834C20.1668 45.0882 16.888 44.2387 13.9766 42.6159L13.3793 42.2673L7.44164 44.0141C7.11852 44.1093 6.77644 44.1204 6.44782 44.0464C6.1192 43.9724 5.81494 43.8156 5.56387 43.591C5.3128 43.3664 5.12326 43.0814 5.0132 42.7631C4.90314 42.4447 4.87621 42.1035 4.93498 41.7718L4.98589 41.5584L6.73273 35.6207C4.88594 32.5682 3.9119 29.0677 3.91664 25.5C3.91664 14.6841 12.6841 5.91669 23.5 5.91669ZM23.5 9.83335C20.6949 9.83285 17.9412 10.5855 15.5263 12.0126C13.1114 13.4398 11.124 15.4891 9.77159 17.9466C8.41918 20.4041 7.75138 23.1797 7.83793 25.9834C7.92447 28.7871 8.76219 31.5162 10.2636 33.8856C10.6514 34.4966 10.8178 35.2486 10.6866 35.9947L10.6102 36.3139L9.7466 39.2534L12.6861 38.3898C13.534 38.1391 14.4153 38.2919 15.1144 38.7364C17.1674 40.0363 19.4946 40.8409 21.9121 41.0865C24.3295 41.3321 26.771 41.012 29.0434 40.1515C31.3159 39.291 33.357 37.9137 35.0055 36.1285C36.654 34.3432 37.8646 32.199 38.5417 29.8653C39.2188 27.5317 39.3437 25.0725 38.9067 22.6822C38.4696 20.2919 37.4826 18.036 36.0235 16.0929C34.5645 14.1498 32.6734 12.5727 30.4999 11.4863C28.3263 10.4 25.9299 9.83405 23.5 9.83335ZM17.8247 16.0687C18.0415 15.9748 18.2791 15.939 18.5139 15.9647C18.7488 15.9905 18.9729 16.0769 19.1642 16.2156C20.1512 16.9362 20.9346 17.9036 21.6082 18.8476L22.2486 19.7758L22.5482 20.2164C22.7211 20.4692 22.806 20.7719 22.7897 21.0777C22.7734 21.3835 22.6569 21.6754 22.4581 21.9084L22.3113 22.0573L20.5018 23.4007C20.4147 23.4637 20.3534 23.5562 20.3293 23.661C20.3051 23.7658 20.3198 23.8758 20.3706 23.9706C20.7818 24.7147 21.5084 25.8251 22.3426 26.6594C23.1788 27.4936 24.3401 28.2691 25.1352 28.7254C25.3075 28.8233 25.5151 28.792 25.6561 28.6647L25.7305 28.5766L26.9075 26.7847C27.1235 26.4969 27.4426 26.3039 27.7979 26.2462C28.1531 26.1885 28.5169 26.2706 28.8129 26.4753L29.8763 27.2175C30.9338 27.9714 31.9502 28.7822 32.7551 29.8103C32.9047 30.0032 32.9999 30.2327 33.0305 30.4748C33.0612 30.717 33.0262 30.963 32.9294 31.187C32.1539 32.9965 30.1896 34.5377 28.1491 34.4633L27.8377 34.4437L27.4636 34.4085C27.393 34.4001 27.3225 34.391 27.2521 34.3811L26.7861 34.3027C24.9766 33.962 22.0763 32.9358 19.0702 29.9317C16.0661 26.9257 15.04 24.0254 14.6992 22.2159L14.6209 21.7498L14.5719 21.3425L14.5465 20.9998C14.5434 20.9508 14.5408 20.9019 14.5386 20.8529C14.4642 18.8084 16.0133 16.8442 17.8247 16.0687Z" fill="#C0CEB6" fill-opacity="0.86"/>
</g>
<defs>
<clipPath id="clip0_72_267">
<rect width="47" height="47" fill="white" transform="translate(67)"/>
</clipPath>
<clipPath id="clip1_72_267">
<rect width="47" height="47" fill="white" transform="translate(274 2)"/>
</clipPath>
<clipPath id="clip2_72_267">
<rect width="47" height="47" fill="white" transform="translate(205)"/>
</clipPath>
<clipPath id="clip3_72_267">
<rect width="47" height="47" fill="white" transform="translate(136 2)"/>
</clipPath>
<clipPath id="clip4_72_267">
<rect width="47" height="47" fill="white" transform="translate(0 2)"/>
</clipPath>
</defs>
</svg>
